<?xml version="1.0" standalone="no"?>
<!DOCTYPE svg PUBLIC "-//W3C//DTD SVG 20010904//EN"
 "http://www.w3.org/TR/2001/REC-SVG-20010904/DTD/svg10.dtd">
<svg version="1.0" xmlns="http://www.w3.org/2000/svg"
 width="400.000000pt" height="400.000000pt" viewBox="0 0 400.000000 400.000000"
 preserveAspectRatio="xMidYMid meet">
<metadata>
Created by potrace 1.14, written by Peter Selinger 2001-2017
</metadata>
<g transform="translate(0.000000,400.000000) scale(0.100000,-0.100000)"
fill="#000000" stroke="none">
<path d="M1735 3896 c-175 -141 -267 -250 -357 -421 -39 -75 -88 -215 -109
-308 -13 -62 -4 -99 30 -111 9 -3 39 -18 66 -34 28 -15 104 -56 170 -91 66
-35 125 -67 130 -71 6 -4 73 -40 150 -80 77 -40 145 -76 150 -80 6 -4 64 -35
130 -70 66 -34 149 -78 184 -98 36 -19 108 -57 160 -84 53 -27 112 -59 131
-71 81 -49 173 -155 252 -290 50 -86 44 -99 -7 -15 -49 81 -97 141 -160 201
-50 49 -90 70 -520 277 -231 111 -451 218 -610 295 -82 40 -206 100 -275 133
-69 33 -241 117 -384 186 -142 69 -262 123 -267 120 -30 -18 -119 -273 -144
-414 -14 -73 -13 -325 1 -405 42 -242 152 -465 313 -637 132 -141 202 -186
636 -408 121 -62 279 -143 350 -180 72 -37 185 -95 252 -130 141 -73 194 -119
223 -197 25 -67 25 -132 0 -203 -11 -30 -19 -68 -20 -84 0 -44 35 -109 71
-130 36 -21 110 -23 138 -4 39 27 100 88 149 147 51 61 162 224 162 238 0 3 6
14 14 22 36 42 182 350 230 486 27 77 54 191 63 269 16 124 6 387 -17 467 -5
16 -7 29 -5 29 11 0 -81 244 -116 308 -46 84 -106 171 -299 432 -75 101 -143
194 -414 565 -169 231 -316 431 -326 445 -11 14 -25 33 -32 43 -12 16 -19 12
-93 -47z m1146 -1922 c5 -15 8 -29 5 -31 -2 -2 -8 10 -14 26 -13 38 -5 41 9 5z"/>
<path d="M1987 654 c-1 -1 -38 -5 -82 -8 -44 -3 -91 -8 -105 -10 -14 -3 -44
-7 -68 -10 -274 -35 -499 -111 -549 -184 -12 -18 -20 -39 -17 -47 3 -7 -4 -23
-16 -35 -25 -25 -29 -60 -10 -95 22 -42 199 -120 320 -142 14 -2 43 -8 65 -13
22 -5 63 -12 90 -16 28 -3 52 -8 55 -9 3 -2 37 -6 75 -10 39 -4 81 -8 95 -11
149 -24 737 -24 965 1 22 2 65 7 95 10 30 3 78 10 105 15 28 6 66 12 86 14 80
10 268 65 329 97 56 28 89 64 97 100 3 19 14 45 25 58 73 95 -100 193 -447
252 -138 23 -245 35 -281 30 -15 -1 -69 -83 -66 -99 2 -7 -6 -26 -18 -42 -26
-37 -32 -66 -17 -78 7 -6 37 -13 67 -16 217 -23 350 -44 350 -56 0 -4 -24 -11
-52 -15 -29 -4 -62 -9 -73 -11 -11 -2 -45 -6 -75 -9 -30 -3 -71 -8 -90 -10
-202 -26 -749 -26 -965 0 -16 2 -52 7 -80 10 -27 3 -59 7 -70 9 -11 2 -58 9
-103 17 -56 9 -77 15 -65 20 41 15 278 46 412 54 45 2 61 15 61 51 0 12 8 32
18 45 19 25 46 128 36 138 -5 5 -92 10 -97 5z"/>
</g>
</svg>
